<svg width="139" height="32" viewBox="0 0 139 32" fill="none" xmlns="http://www.w3.org/2000/svg">
<rect x="125.816" y="2.60425" width="5.69672" height="26.6932" rx="0.48829" fill="white"/>
<rect x="139" y="2.60425" width="5.69672" height="13.1838" rx="0.48829" transform="rotate(90 139 2.60425)" fill="white"/>
<rect x="139" y="23.6008" width="5.69672" height="13.1838" rx="0.48829" transform="rotate(90 139 23.6008)" fill="white"/>
<rect x="139" y="13.021" width="5.69672" height="13.1838" rx="0.48829" transform="rotate(90 139 13.021)" fill="white"/>
<path fill-rule="evenodd" clip-rule="evenodd" d="M81.8458 2.44051C81.9151 2.24592 82.0993 2.11597 82.3058 2.11597H82.6074H88.2405C88.4471 2.11597 88.6313 2.24592 88.7006 2.44051L97.8846 28.2411C97.9977 28.559 97.762 28.8931 97.4246 28.8931H92.4835C92.277 28.8931 92.0928 28.7631 92.0235 28.5686L91.7519 27.8055C89.1804 22.4393 81.3657 22.4393 78.7942 27.8058L78.5226 28.5686C78.4533 28.7632 78.2691 28.8931 78.0626 28.8931H73.1218C72.7844 28.8931 72.5486 28.559 72.6618 28.2411L81.8458 2.44051ZM84.8132 10.8969C84.9672 10.4642 85.5792 10.4642 85.7332 10.8969L88.2901 18.08C88.4218 18.4497 88.084 18.8205 87.6983 18.7477C86.0958 18.4453 84.4506 18.4453 82.8481 18.7477C82.4624 18.8205 82.1246 18.4497 82.2562 18.08L84.8132 10.8969Z" fill="white"/>
<path d="M41.9805 9.63452L42.1426 9.64038C42.1264 10.0774 42.2203 10.4504 42.417 10.7664L42.5 10.8865C42.7032 11.1631 42.9678 11.4083 43.2959 11.6218H43.2949C43.674 11.8595 44.114 12.0702 44.6162 12.2527C45.0155 12.3899 45.4212 12.51 45.8311 12.6111L46.2422 12.7058L46.2451 12.7068L48.6426 13.2654C49.8172 13.522 50.8989 13.864 51.8838 14.2927C52.8713 14.7225 53.7289 15.2535 54.4561 15.8845C55.1859 16.5179 55.7532 17.2645 56.1543 18.1248L56.2988 18.4548C56.6148 19.2378 56.7754 20.1138 56.7832 21.0808V21.0837C56.7743 22.7073 56.3485 24.1235 55.501 25.324L55.5 25.323C54.714 26.4394 53.6026 27.3191 52.1719 27.9636L51.8809 28.0896C50.3167 28.7359 48.4369 29.0554 46.2471 29.0554C44.0739 29.0554 42.1739 28.7308 40.5498 28.0769H40.5488C38.9317 27.4221 37.662 26.4494 36.7461 25.158L36.7451 25.157C35.9183 23.9711 35.4522 22.5346 35.3418 20.8542C35.3176 20.4824 35.619 20.1814 35.9824 20.1814H40.4941C40.8393 20.1814 41.1097 20.4481 41.1611 20.7712C41.2646 21.4229 41.4944 21.9749 41.8467 22.4314L42.0186 22.6316C42.4366 23.0855 42.9679 23.4387 43.6162 23.6902L43.9033 23.7888C44.5844 24.0037 45.3433 24.113 46.1816 24.113C47.1235 24.113 47.9336 23.9791 48.6152 23.7166H48.6162C49.3086 23.4533 49.8346 23.0902 50.2041 22.6335C50.5719 22.1796 50.7558 21.6607 50.7559 21.0701C50.7559 20.5211 50.589 20.0686 50.2617 19.7029L50.2607 19.7009C49.9345 19.3271 49.445 19.001 48.7812 18.7273V18.7263C48.1224 18.451 47.3093 18.199 46.3408 17.9714H46.3389L43.4307 17.2585V17.2595C41.1604 16.7212 39.3548 15.8764 38.0244 14.7175C36.6798 13.5465 36.0156 11.9681 36.0244 10.0017C36.016 8.39304 36.4557 6.9808 37.3477 5.77222L37.3486 5.77124C38.2463 4.56676 39.475 3.63002 41.0283 2.95874C42.5829 2.28702 44.3456 1.95288 46.3125 1.95288C48.3135 1.95292 50.0685 2.28699 51.5723 2.95972H51.5713C53.0821 3.63141 54.2638 4.56922 55.1094 5.77515C55.8643 6.85214 56.2922 8.08064 56.3945 9.45679C56.4222 9.82951 56.1189 10.1277 55.7578 10.1277H51.2812C50.9433 10.1277 50.6794 9.87225 50.6133 9.56323C50.4468 8.7837 50.0438 8.16699 49.4014 7.70581C48.6463 7.1638 47.6094 6.8836 46.2734 6.88354C45.3653 6.88354 44.6083 7.00893 43.998 7.25366L43.9961 7.25464C43.3829 7.49224 42.9229 7.81969 42.6055 8.23218C42.297 8.6442 42.1436 9.10979 42.1436 9.63452V9.64038L41.9805 9.63452Z" fill="white" stroke="#0B1C32" stroke-width="0.325527"/>
<rect x="64.1289" y="2.11597" width="5.69672" height="26.6932" rx="0.48829" fill="white"/>
<rect x="76.6621" y="2.11597" width="5.69672" height="19.3689" rx="0.48829" transform="rotate(90 76.6621 2.11597)" fill="white"/>
<path d="M115.643 11.211C115.422 11.211 115.231 11.0622 115.159 10.8536C115.021 10.4528 114.84 10.0911 114.618 9.76843C114.332 9.34389 113.981 8.98432 113.564 8.68974C113.148 8.39515 112.671 8.17422 112.133 8.02693C111.595 7.87097 111.006 7.79299 110.364 7.79299C109.071 7.79299 107.952 8.1049 107.007 8.72873C106.07 9.35255 105.346 10.2623 104.834 11.458C104.322 12.645 104.067 14.0875 104.067 15.7857C104.067 17.4926 104.314 18.9482 104.808 20.1525C105.303 21.3568 106.018 22.2752 106.955 22.9077C107.892 23.5402 109.028 23.8564 110.364 23.8564C111.543 23.8564 112.541 23.6658 113.356 23.2846C114.18 22.8947 114.805 22.3445 115.23 21.6341C115.635 20.9562 115.792 20.163 115.806 19.2563C115.807 19.2235 115.851 19.213 115.866 19.2423C115.876 19.263 115.861 19.2873 115.838 19.2872L111.071 19.2705C110.802 19.2695 110.585 19.0512 110.585 18.7822V15.0654C110.585 14.7957 110.804 14.5771 111.073 14.5771H121.585C121.855 14.5771 122.073 14.7957 122.073 15.0654V18.0991C122.073 20.4817 121.566 22.5222 120.551 24.2203C119.545 25.9185 118.157 27.2225 116.388 28.1322C114.627 29.042 112.602 29.4968 110.312 29.4968C107.77 29.4968 105.537 28.9467 103.611 27.8463C101.686 26.746 100.185 25.1777 99.1094 23.1416C98.0339 21.0969 97.4961 18.6709 97.4961 15.8637C97.4961 13.6803 97.8214 11.7439 98.4719 10.0544C99.1224 8.35617 100.029 6.91791 101.191 5.73957C102.362 4.56124 103.715 3.66883 105.25 3.06233C106.794 2.45584 108.455 2.15259 110.234 2.15259C111.778 2.15259 113.213 2.37353 114.54 2.8154C115.876 3.25728 117.056 3.8811 118.079 4.68687C119.111 5.49264 119.948 6.45004 120.59 7.55906C121.143 8.51478 121.516 9.55094 121.708 10.6675C121.758 10.9556 121.53 11.211 121.238 11.211H115.643Z" fill="white"/>
<path d="M4.18889 6.80607C4.03495 6.28916 4.3292 5.74532 4.84611 5.59138L22.686 0.278568C23.2029 0.124627 23.7468 0.418876 23.9007 0.935792L26.5474 9.82305C26.7211 10.4063 26.3279 11.0064 25.7245 11.085C23.7325 11.3445 19.5951 11.9459 16.7636 12.7851C13.8916 13.6364 10.0411 15.4207 8.21456 16.3003C7.66644 16.5642 7.00936 16.2769 6.83573 15.6939L4.18889 6.80607Z" fill="#77E5FF"/>
<path d="M2.41565 21.6716C2.26424 21.1632 2.63116 20.6454 3.16056 20.6112C5.13103 20.4839 9.46344 20.1202 12.3804 19.2556C15.3267 18.3823 19.1942 16.2968 20.9243 15.3203C21.3862 15.0596 21.9759 15.2926 22.1273 15.8009L24.8694 25.0086C24.9977 25.4393 24.7525 25.8925 24.3217 26.0208L6.16985 31.4265C5.73908 31.5548 5.28589 31.3096 5.1576 30.8788L2.41565 21.6716Z" fill="#645BFF"/>
<rect x="4.55859" y="5.20337" width="26.7959" height="11.6376" rx="1.13934" transform="rotate(23.0634 4.55859 5.20337)" fill="#0033E2"/>
</svg>
